<svg xmlns="http://www.w3.org/2000/svg" version="1.1" xmlns:xlink="http://www.w3.org/1999/xlink" xmlns:svgjs="http://svgjs.dev/svgjs" width="100%" height="100%" viewBox="0 0 1000 600"><rect width="1000" height="600" x="0" y="0" fill="#3a3f41"/><g><circle r="166.66666666666666" cx="369.1971995035807" cy="391.41951333720107" fill="#2c3e50" transform="matrix(0.6171905787637738,0,0,0.6171905787637739,0,58.41955122888113)"/><path d="M369.0801534824358 466.41953349866117L369.0801534824358 466.41953349866117Q352.66384515370027 466.41953349866117 337.5936155827577 461.06448104918064Q322.5233860118151 455.6801660180089 314.3006005566018 447.2525424909575L314.3006005566018 447.2525424909575L320.41648013005226 435.25488399758575Q328.2295894415895 442.83389265559373 341.3977512026073 447.9841070332363Q354.56591296362507 453.16358399256995 369.0801534824358 453.16358399256995L369.0801534824358 453.16358399256995Q383.00914236742346 453.16358399256995 391.72939171138637 449.681336771323Q400.4789036370404 446.19908955007605 404.60492765549265 440.2880480484636Q408.70168909225373 434.40626912854236 408.70168909225373 427.2369366142105L408.70168909225373 427.2369366142105Q408.70168909225373 418.60447501532104 403.75631278644926 413.3372103109139Q398.81093648064484 408.0699456065068 390.7929890972695 404.997374528936Q382.77504171389427 401.95406603305634 373.0891271741234 399.6423220794554Q363.40321263435254 397.3305781258545 353.7172980945817 394.69694577365095Q344.0313835548108 392.0633134214474 335.89638584467093 387.61540100439254Q327.7906507162222 383.1967511690288 322.8452744104178 375.9396309096234Q317.8998981046133 368.6532480685269 317.8998981046133 356.86042764699323L317.8998981046133 356.86042764699323Q317.8998981046133 345.91622209450287 323.69388927946113 336.7570340251727Q329.487880454309 327.5685833741514 341.48553894768077 322.0086928528328Q353.51246002274365 316.41953974982306 372.2405123050801 316.41953974982306L372.2405123050801 316.41953974982306Q384.67710952381907 316.41953974982306 396.90886867072004 319.90178697106995Q409.11136523592984 323.35477161062573 417.9779274883485 329.4706511840762L417.9779274883485 329.4706511840762L412.71066278394136 341.90724840281524Q403.2295863160086 335.5865307575267 392.5780065804297 332.6310100067205Q381.95568942654205 329.6754892559143 372.035674233242 329.6754892559143L372.035674233242 329.6754892559143Q358.7797247271508 329.6754892559143 350.11800054657016 333.2747868039258Q341.48553894768077 336.84482177024614 337.3887775109196 342.84365101693203Q333.26275349246737 348.8717428453091 333.26275349246737 356.4507515033171L333.26275349246737 356.4507515033171Q333.26275349246737 365.0832131022065 338.237392379963 370.35047780661364Q343.1827686857674 375.61774251102077 351.2885038142162 378.573263261827Q359.3942389426649 381.5287840126332 369.0801534824358 383.8405279662341Q378.7953306038978 386.15227191983496 388.36419481690405 388.90295459880315Q397.96232161160145 391.62437469608017 406.06805674005017 395.95523678637045Q414.1737918684989 400.25683629496956 419.11916817430335 407.4261688093015Q424.093807061799 414.5955013236334 424.093807061799 426.183483673329L424.093807061799 426.183483673329Q424.093807061799 436.92285115398136 418.18276556018657 446.0820392233115Q412.27172405857414 455.2704898743328 400.15701523843774 460.8303803956514Q388.0423064183014 466.41953349866117 369.0801534824358 466.41953349866117Z " fill="#1abc9c" transform="matrix(0.6171905787637738,0,0,0.6171905787637739,0,58.41955122888113)"/><path d="M673.9767561130511 466.41953349866117L673.9767561130511 466.41953349866117Q657.5604477843156 466.41953349866117 642.4902182133729 461.06448104918064Q627.4199886424303 455.6801660180089 619.197203187217 447.2525424909575L619.197203187217 447.2525424909575L625.3130827606676 435.25488399758575Q633.1261920722047 442.83389265559373 646.2943538332225 447.9841070332363Q659.4625155942404 453.16358399256995 673.9767561130511 453.16358399256995L673.9767561130511 453.16358399256995Q687.9057449980387 453.16358399256995 696.6259943420016 449.681336771323Q705.3755062676557 446.19908955007605 709.5015302861079 440.2880480484636Q713.598291722869 434.40626912854236 713.598291722869 427.2369366142105L713.598291722869 427.2369366142105Q713.598291722869 418.60447501532104 708.6529154170646 413.3372103109139Q703.7075391112601 408.0699456065068 695.6895917278848 404.997374528936Q687.6716443445096 401.95406603305634 677.9857298047386 399.6423220794554Q668.2998152649678 397.3305781258545 658.613900725197 394.69694577365095Q648.9279861854261 392.0633134214474 640.7929884752862 387.61540100439254Q632.6872533468375 383.1967511690288 627.741877041033 375.9396309096234Q622.7965007352286 368.6532480685269 622.7965007352286 356.86042764699323L622.7965007352286 356.86042764699323Q622.7965007352286 345.91622209450287 628.5904919100765 336.7570340251727Q634.3844830849242 327.5685833741514 646.382141578296 322.0086928528328Q658.4090626533589 316.41953974982306 677.1371149356953 316.41953974982306L677.1371149356953 316.41953974982306Q689.5737121544344 316.41953974982306 701.8054713013353 319.90178697106995Q714.0079678665452 323.35477161062573 722.8745301189638 329.4706511840762L722.8745301189638 329.4706511840762L717.6072654145567 341.90724840281524Q708.1261889466239 335.5865307575267 697.4746092110449 332.6310100067205Q686.8522920571573 329.6754892559143 676.9322768638573 329.6754892559143L676.9322768638573 329.6754892559143Q663.676327357766 329.6754892559143 655.0146031771854 333.2747868039258Q646.382141578296 336.84482177024614 642.2853801415349 342.84365101693203Q638.1593561230827 348.8717428453091 638.1593561230827 356.4507515033171L638.1593561230827 356.4507515033171Q638.1593561230827 365.0832131022065 643.1339950105782 370.35047780661364Q648.0793713163828 375.61774251102077 656.1851064448315 378.573263261827Q664.2908415732802 381.5287840126332 673.9767561130511 383.8405279662341Q683.691933234513 386.15227191983496 693.2607974475193 388.90295459880315Q702.8589242422167 391.62437469608017 710.9646593706655 395.95523678637045Q719.0703944991142 400.25683629496956 724.0157708049186 407.4261688093015Q728.9904096924142 414.5955013236334 728.9904096924142 426.183483673329L728.9904096924142 426.183483673329Q728.9904096924142 436.92285115398136 723.0793681908018 446.0820392233115Q717.1683266891894 455.2704898743328 705.053617869053 460.8303803956514Q692.9389090489167 466.41953349866117 673.9767561130511 466.41953349866117ZM843.377841523122 465.1612424859417L829.0684390761494 465.1612424859417L829.0684390761494 440.7269867738309L828.4246622789441 436.7180130821433L828.4246622789441 395.8381864596059Q828.4246622789441 381.7336220844712 820.5237652223334 374.15461342646324Q812.6228681657228 366.54634218676404 797.0259121243395 366.54634218676404L797.0259121243395 366.54634218676404Q786.2865446436872 366.54634218676404 776.6006301039163 370.1456397347756Q766.9147155641455 373.71567470109596 760.1550591934897 379.6267162027084L760.1550591934897 379.6267162027084L753.4246654045251 368.4484099966889Q761.8522889315764 361.27907748235697 773.6451093531101 357.3871541174339Q785.4379297746437 353.4952307525109 798.5183037905881 353.4952307525109L798.5183037905881 353.4952307525109Q819.9970387518927 353.4952307525109 831.702071428353 364.1468104880897Q843.377841523122 374.7691276419774 843.377841523122 396.4819632568112L843.377841523122 396.4819632568112L843.377841523122 465.1612424859417ZM790.910032550889 466.2146954268231L790.910032550889 466.2146954268231Q778.5026979138411 466.2146954268231 769.3142472628198 462.117933990062Q760.1550591934897 457.9919099716098 755.3267332144499 450.7347897122044Q750.4691446537188 443.4484068711079 750.4691446537188 433.96733040317514L750.4691446537188 433.96733040317514Q750.4691446537188 425.3348688042857 754.5659060904799 418.2825866167184Q758.6919301089321 411.2303044291511 768.0559562501003 406.89944233886075Q777.4492449729597 402.59784283026164 793.251039086181 402.59784283026164L793.251039086181 402.59784283026164L831.3801830297502 402.59784283026164L831.3801830297502 413.74688645459L793.6607152298571 413.74688645459Q777.6540830447977 413.74688645459 771.4211531445826 419.4530898843644Q765.2174858260587 425.13003073244766 765.2174858260587 433.55765425949903L765.2174858260587 433.55765425949903Q765.2174858260587 443.0387307274318 772.5916564122286 448.71567157551505Q779.9658269983986 454.42187500528945 793.251039086181 454.42187500528945L793.251039086181 454.42187500528945Q805.8924743767582 454.42187500528945 815.0516624460882 448.6278838304416Q824.2108505154184 442.83389265559373 828.4246622789441 431.86042452141226L828.4246622789441 431.86042452141226L831.7898591734264 442.1901158583884Q827.5760474099008 453.16358399256995 817.1585683278511 459.6891397096965Q806.7118266641103 466.2146954268231 790.910032550889 466.2146954268231ZM1022.2600034011259 353.4952307525109L1022.2600034011259 353.4952307525109Q1035.7500535607462 353.4952307525109 1045.75785649912 358.6454451301534Q1055.7656594374935 363.8249220894871 1061.3548125405032 374.35945149830127Q1066.9147030618217 384.8939809071155 1066.9147030618217 400.9006130921749L1066.9147030618217 400.9006130921749L1066.9147030618217 465.1612424859417L1051.9615238176439 465.1612424859417L1051.9615238176439 402.36374217673244Q1051.9615238176439 384.8939809071155 1043.650950617357 375.9396309096234Q1035.3111148353792 366.9852809121313 1020.1530975193631 366.9852809121313L1020.1530975193631 366.9852809121313Q1008.7699532415054 366.9852809121313 1000.4593800412187 371.7258191460977Q992.1195442592407 376.46635738006415 987.6131066788035 385.4207073775562Q983.0774065166752 394.3750573750483 983.0774065166752 407.0164926656254L983.0774065166752 407.0164926656254L983.0774065166752 465.1612424859417L968.1242272724973 465.1612424859417L968.1242272724973 402.36374217673244Q968.1242272724973 384.8939809071155 959.6966037454458 375.9396309096234Q951.2689802183945 366.9852809121313 936.0817003206873 366.9852809121313L936.0817003206873 366.9852809121313Q924.9326566963589 366.9852809121313 916.5050331693075 371.7258191460977Q908.077409642256 376.46635738006415 903.5417094801278 385.4207073775562Q899.0060093179993 394.3750573750483 899.0060093179993 407.0164926656254L899.0060093179993 407.0164926656254L899.0060093179993 465.1612424859417L884.0528300738215 465.1612424859417L884.0528300738215 354.5486836933923L898.3622325207941 354.5486836933923L898.3622325207941 384.45504218174824L896.0504885671933 379.1877774773411Q901.1129151997623 367.1901189839694 912.3790091508553 360.3426748682401Q923.6451031019483 353.4952307525109 939.0372210714935 353.4952307525109L939.0372210714935 353.4952307525109Q955.2486913283909 353.4952307525109 966.6318356062486 361.6009658809596Q978.0149798841062 369.70670100940833 981.3801767785885 385.94743384799693L981.3801767785885 385.94743384799693L975.4983978586672 383.635689894396Q980.326723837707 370.1456397347756 992.6462707296814 361.80580395279765Q1004.995080203347 353.4952307525109 1022.2600034011259 353.4952307525109ZM1154.5853978085092 466.2146954268231L1154.5853978085092 466.2146954268231Q1137.291212029039 466.2146954268231 1124.2401005947859 458.95757516741776Q1111.1597265788414 451.67119232632126 1103.7855559926716 438.9419692906707Q1096.4113854065017 426.183483673329 1096.4113854065017 409.7379127629024L1096.4113854065017 409.7379127629024Q1096.4113854065017 393.3216044341669 1103.49293017576 380.6801691435898Q1110.5452123633272 368.03873385301273 1122.8647592553018 360.75235101191623Q1135.1843061472762 353.4952307525109 1150.5764241168213 353.4952307525109L1150.5764241168213 353.4952307525109Q1166.1733801582047 353.4952307525109 1178.288088978341 360.5475129400782Q1190.4027977984774 367.59979512764545 1197.33802965928 380.35828074498716Q1204.302524101774 393.11676636232886 1204.302524101774 409.7379127629024L1204.302524101774 409.7379127629024Q1204.302524101774 410.7913657037838 1204.1854737750093 411.96186897142985Q1204.0976860299359 413.1323722390759 1204.0976860299359 414.39066325179533L1204.0976860299359 414.39066325179533L1107.794529684359 414.39066325179533L1107.794529684359 403.21235704577583L1196.0797386465606 403.21235704577583L1190.1686971449483 407.63100688113957Q1190.1686971449483 395.6333483877678 1185.0184827673056 386.2693222465996Q1179.8682683896632 376.8760335237402 1171.0017061372446 371.60876881933314Q1162.164406466517 366.341504114926 1150.5764241168213 366.341504114926L1150.5764241168213 366.341504114926Q1139.193279838964 366.341504114926 1130.121879514707 371.60876881933314Q1121.0797417721415 376.8760335237402 1116.0173151395725 386.35710999167304Q1110.9548885070035 395.8381864596059 1110.9548885070035 408.0699456065068L1110.9548885070035 408.0699456065068L1110.9548885070035 410.3816895601077Q1110.9548885070035 423.0231248506848 1116.5440416100132 432.6212516453822Q1122.133194713023 442.1901158583884 1132.1409976513964 447.5744308895602Q1142.14880058977 452.9294833390407 1154.995073952185 452.9294833390407L1154.995073952185 452.9294833390407Q1165.1199272173233 452.9294833390407 1173.8401765612862 449.35944837272035Q1182.5896884869403 445.7894134064 1188.9104061322287 438.41524282023005L1188.9104061322287 438.41524282023005L1197.33802965928 448.10115736000085Q1189.9638590731101 456.93845703072833 1178.9026031938552 461.5912075196213Q1167.8413473146002 466.2146954268231 1154.5853978085092 466.2146954268231ZM1281.819103001632 466.2146954268231L1281.819103001632 466.2146954268231Q1264.554179803853 466.2146954268231 1251.5030683696 458.95757516741776Q1238.4226943536555 451.67119232632126 1231.0485237674857 438.9419692906707Q1223.6743531813158 426.183483673329 1223.6743531813158 409.7379127629024L1223.6743531813158 409.7379127629024Q1223.6743531813158 393.3216044341669 1230.726635368883 380.6801691435898Q1237.8081801381413 368.03873385301273 1250.1277270301157 360.75235101191623Q1262.44727392209 353.4952307525109 1277.8393918916356 353.4952307525109L1277.8393918916356 353.4952307525109Q1293.4070853513276 353.4952307525109 1305.521794171464 360.5475129400782Q1317.6365029916005 367.59979512764545 1324.600997434094 380.35828074498716Q1331.565491876588 393.11676636232886 1331.565491876588 409.7379127629024L1331.565491876588 409.7379127629024Q1331.565491876588 410.7913657037838 1331.4484415498234 411.96186897142985Q1331.331391223059 413.1323722390759 1331.331391223059 414.39066325179533L1331.331391223059 414.39066325179533L1235.0574974591732 414.39066325179533L1235.0574974591732 403.21235704577583L1323.3427064213747 403.21235704577583L1317.4316649197624 407.63100688113957Q1317.4316649197624 395.6333483877678 1312.2814505421197 386.2693222465996Q1307.1019735827863 376.8760335237402 1298.2646739120587 371.60876881933314Q1289.427374241331 366.341504114926 1277.8393918916356 366.341504114926L1277.8393918916356 366.341504114926Q1266.456247613778 366.341504114926 1257.384847289521 371.60876881933314Q1248.3427095469556 376.8760335237402 1243.2802829143866 386.35710999167304Q1238.2178562818176 395.8381864596059 1238.2178562818176 408.0699456065068L1238.2178562818176 408.0699456065068L1238.2178562818176 410.3816895601077Q1238.2178562818176 423.0231248506848 1243.8070093848273 432.6212516453822Q1249.396162487837 442.1901158583884 1259.4039654262106 447.5744308895602Q1269.411768364584 452.9294833390407 1282.2580417269992 452.9294833390407L1282.2580417269992 452.9294833390407Q1292.3536324104462 452.9294833390407 1301.1031443361003 449.35944837272035Q1309.8526562617544 445.7894134064 1316.1733739070428 438.41524282023005L1316.1733739070428 438.41524282023005L1324.600997434094 448.10115736000085Q1317.2268268479243 456.93845703072833 1306.1655709686693 461.5912075196213Q1295.1043150894143 466.2146954268231 1281.819103001632 466.2146954268231ZM1377.0688064063274 465.1612424859417L1362.1156271621494 465.1612424859417L1362.1156271621494 354.5486836933923L1376.425029609122 354.5486836933923L1376.425029609122 384.68914283527744L1374.9619005245645 379.4218781308703Q1379.5853884317662 366.7804428402933 1390.5588565659477 360.1378367964021Q1401.5030621184383 353.4952307525109 1417.7145323753355 353.4952307525109L1417.7145323753355 353.4952307525109L1417.7145323753355 368.03873385301273Q1416.8951800879836 368.03873385301273 1416.04656521894 367.92168352624816Q1415.1979503498965 367.8338957811747 1414.3493354808534 367.8338957811747L1414.3493354808534 367.8338957811747Q1396.879574211236 367.8338957811747 1386.959559017936 378.45621293506235Q1377.0688064063274 389.10779267064123 1377.0688064063274 408.684459822021L1377.0688064063274 408.684459822021L1377.0688064063274 465.1612424859417Z " fill="#1abc9c" transform="matrix(0.6171905787637738,0,0,0.6171905787637739,0,58.41955122888113)"/></g></svg>